<svg xmlns="http://www.w3.org/2000/svg" xmlns:xlink="http://www.w3.org/1999/xlink" width="100" height="100" viewBox="0 0 100 100"><circle stroke="none" fill="#FF9C34" r="48%" cx="50%" cy="50%"></circle><g transform="translate(50 50) scale(0.69 0.69) rotate(0) translate(-50 -50)" style="fill:#1A1A1A"><svg fill="#1A1A1A" xmlns="http://www.w3.org/2000/svg" data-name="Слой 1" viewBox="0 0 100 100" x="0px" y="0px"><title>Безымянный-2_Монтажная область 1_Монтажная область 1_Монтажная область 1_Монтажная область 1_Монтажная область 1</title><path d="M16.69038,67.37006l-2.75483,2.11768c1.27051,2.33274.41723,4.62756-.48564,6.87469A14.56226,14.56226,0,0,1,11.489,80.09257a15.51646,15.51646,0,0,1-3.54643,3.186c-.959.62761-1.57748-.091-1.8255-1.19435-.48787-2.17043.23194-4.19075.83115-6.22425a7.36944,7.36944,0,0,1,1.29324-2.52735c1.07347-1.31343,1.28361-3.20255,2.92123-4.13525.15768-.0898.23231-.49981.20832-.74046-.37228-3.7343,1.5705-6.67043,3.69975-9.544.29024-.39167.63-1.11812.49242-1.102-.47817-1.45293-1.00633-2.88961-1.41646-4.36467a2.44161,2.44161,0,0,0-1.62843-1.99244c-1.21239-.39578-1.14985-1.75153-1.033-2.60253a42.81108,42.81108,0,0,1,1.47558-5.9098A1.96741,1.96741,0,0,1,15.59,41.39208c.41638.10518.85889.12366,1.5703.21985-.58059-1.21644-1.07769-2.23149-1.55211-3.25794-.75943-1.64314-1.47383-3.30955-2.26376-4.93652-.67109-1.38218-1.48155-2.69338-2.11181-4.09406-.304-.67568-.25854-1.515-.50575-2.22768-.55974-1.61351-1.304-3.15984-1.78691-4.79713a45.51449,45.51449,0,0,1-1.52431-6.43689A14.74058,14.74058,0,0,1,7.72169,11.672a2.70392,2.70392,0,0,1,2.5221-2.183,5.63185,5.63185,0,0,1,4.98512,1.55559,43.20076,43.20076,0,0,1,4.77184,5.71326,18.28578,18.28578,0,0,1,1.5401,3.8344c.7512,1.89784,1.52522,3.78566,2.276,5.68368q1.12053,2.83267,2.21257,5.67781c.51719,1.34753.70778,1.43946,2.022.737,1.60239-.85645,3.1888-1.74505,5.0808-2.78369a11.7348,11.7348,0,0,0-1.57324-.79651A4.65161,4.65161,0,0,1,28.366,25.865c-.0689-.22587.72165-1.0788.9294-1.02644,2.13207.53724,6.59217-.49463,6.95339-.46782-.6796-.945-1.29145-1.72468-1.81173-2.56394-.14916-.2406-.03358-.65334-.03938-.98714.37079.03686.9022-.07213,1.08717.13343,1.60669,1.78564,3.15121,3.62772,4.90279,5.67322,1.33767-.07364,2.3523-1.39775,3.40727-2.621a4.97411,4.97411,0,0,0,1.53194-2.88339c.06345-.983.74986-1.33341,1.60986-1.3923,1.83972-.126,3.68034-.20333,5.51968-.34073.821-.06131,1.06763.24356,1.21822,1.06148.29276,1.59012.82174,3.125,1.35748,5.06074.92975-.94366,1.61874-1.61113,2.27168-2.31187a15.04372,15.04372,0,0,1,5.82724-3.9466,1.71579,1.71579,0,0,0,.794-.87854,44.86326,44.86326,0,0,0,2.966-7.363,25.1664,25.1664,0,0,1,1.31992-3.94721c.2678-.65045.577-1.13431,1.37361-.72329a.93045.93045,0,0,0,.70877.088c1.54094-.72957,2.88376-.05663,4.26052.34094a1.84949,1.84949,0,0,1,1.216,2.75486c-.25764.636-.43068,1.30238-.58737,1.78624l2.32516,1.32094c.56554-.36137,1.31266-1.0056,2.2749-.20962.26632.22028,1.11107.04774,1.49647-.22689a1.15486,1.15486,0,0,1,1.8269.27016c.89364-.67124,1.74719-.97256,2.26173.35838.352-.22842.61365-.51072.90316-.56019a2.28585,2.28585,0,0,1,1.38509.04885c.4195.24248.89822.61253.43753,1.38621-.82623,1.38755-1.55147,2.83616-2.248,4.29022a31.742,31.742,0,0,0-1.39061,3.4006,2.06834,2.06834,0,0,0,.18657,1.15038c.12037.37968,1.511,3.43435,2.897,3.86357a22.03405,22.03405,0,0,1,5.45791,4.07081.997.997,0,0,1,.06321.91592c-.74653,1.106-1.57819,2.15675-2.35952,3.24109-.15879.22038-.36717.54334-.31671.75005a7.17533,7.17533,0,0,1-.74814,4.58964,3.63578,3.63578,0,0,0-.14267.581A3.8231,3.8231,0,0,1,93.27113,44.356c.03007,2.07607-.03912,4.16224-.175,6.24253-.02352.3601-.60984,1.01269-.9151,1.01614-1.16366.01316-1.23647.90832-1.40963,1.59064-.901,3.55-1.74451,7.11208-2.57778,10.67549A3.3351,3.3351,0,0,0,89.979,67.38645a34.59915,34.59915,0,0,1,3.17151,2.09074c1.65824,1.29315.8686,4.648-1.21956,5.59784a4.10252,4.10252,0,0,1-4.5551-.26137,7.74862,7.74862,0,0,0-1.06932-.54662c-.37926.92513-.80312,1.75951-1.06334,2.63454-.576,1.93688-1.17987,3.878-1.57,5.84709-.52294,2.63928-1.77479,5.1404-1.62848,7.92115.09756,1.85421-1.02929,2.68354-2.84789,2.55018a10.93036,10.93036,0,0,0-1.445.05463c-4.96874.30223-9.94785,1.02235-14.8911.33015a17.179,17.179,0,0,0-2.05256.13042c-2.84541-.03462-5.6877-.11744-8.533-.15444-1.71388-.02229-3.43542.0578-5.14591.00209-2.87264-.09356-5.73728-.28051-8.60907-.38559-1.70816-.0625-3.42728-.00317-5.13484-.07076-2.58435-.10229-5.163-.26654-7.74377-.40766-.20239-.01108-.40136-.07212-.60319-.06763-1.83007.04067-1.86543.04374-2.22174-1.78171-.42327-2.16853-.65456-4.39365-1.21972-6.51559-.81973-3.0777-1.89872-6.07307-2.79774-9.12722-.439-1.49134-.69142-3.04529-1.08439-4.55363C17.43513,69.59944,17.06177,68.55468,16.69038,67.37006Zm46.1638-3.03536-.00953-.02283a5.49274,5.49274,0,0,0-.536,1.62c.00906,1.99542.17278,3.9816.20369,5.97632.03951,2.54887.00274,5.10286.006,7.65426.00246,1.90186.01631,3.80309.02607,5.9176l4.736.02948.23707-2.855c-1.34732-.998-3.27575.41446-4.56878-1.3457a9.80872,9.80872,0,0,1,1.46158-.30449c.72807-.02635,1.45529.024,2.182.052.56609.0218,1.19194-.01747,1.09591-.76241-.04115-.31917-.54307-.66465-.91564-.79246-.78658-.26978-1.64168-.36143-2.43446-.61842-.257-.08333-.40745-.45418-.60664-.69351.28022-.128.5794-.38445.83709-.35976a20.99409,20.99409,0,0,0,2.26026.3512c.35561-.00558.72951-.50865,1.09512-.78626-.28331-.22716-.53182-.57951-.85757-.654-.57784-.13211-1.21822-.036-1.79976-.15981-.22238-.04734-.35506-.4362-.52861-.66945.224-.1487.44135-.40018.67339-.42744.80152-.09416,1.60819-.11016,2.52158-.16211l-.01016-2.20062c-1.163-.25727-2.27728-.45308-3.34733-.77564-.27225-.08209-.404-.56686-.60036-.86662a3.06228,3.06228,0,0,1,.94574-.20405c1.00593.11889,1.99977.309,2.99669.47168a5.35975,5.35975,0,0,0,.31411-1.47914,1.22937,1.22937,0,0,0-.568-.91152c-.85771-.30572-1.80559-.389-2.65885-.703-.44592-.16409-.767-.6304-1.14448-.96021a6.4034,6.4034,0,0,1,1.46513-.28162,5.92578,5.92578,0,0,1,1.24286.40873c.58983.16236,1.19321.28276,1.82083.42809.27741-2.7.78386-5.30323-2.48624-6.16833-.1432-.03788-.239-.21043-.374-.29411-.982-.609-1.96837-1.21124-2.95336-1.81563l-.37155.25622ZM17.3437,66.40709a7.04925,7.04925,0,0,1,.92378,1.47492c.95186,3.35425,1.84113,6.72913,2.77452,10.08958.71523,2.575,1.42555,5.1528,2.21549,7.70179.5183,1.67253,1.16107,3.30167,1.78316,4.93538.096.25211.35757.58853.5815.6083,2.57854.22781,5.15907.45855,7.75.57714,3.858.17652,7.7263.24744,11.58749.39352,3.94662.14933,7.88472.409,11.83632.48256,3.42176.0637,6.8579.05685,10.28643-.14145,4.00515-.23163,8.00959-.69184,12.01207-1.09849a1.2559,1.2559,0,0,0,.87173-.65454c.6647-2.10143,1.27751-4.21789,1.85717-6.34068q1.35829-4.9743,2.63989-9.96547c.10751-.418.19164-1.097-.03035-1.28165a30.99041,30.99041,0,0,0-2.84039-1.92278,5.52758,5.52758,0,0,0-.368.87747c-.40639,2.65108-.866,5.29913-1.17883,7.95669-.33092,2.81139-.46713,5.63613-.82894,8.44425-.05086.39479-.89093.99659-1.382,1.03939-1.4402.12553-2.88757-.01065-4.33419.01146-.85714.0131-1.45326-.15937-1.36-1.18535.11256-1.23855.22867-2.47754.30658-3.71673.17489-2.78173.35572-5.56391.48045-8.34551.12181-2.71614.19813-5.4325.24531-8.14706.01079-.62117.0354-1.45474-.32383-1.80554a14.65514,14.65514,0,0,0-2.67989-1.679,13.97177,13.97177,0,0,0-.28593,1.52285c-.26251,4.32993-.6332,8.66416-.71674,12.9887-.0617,3.19366-.67263,11.09262-1.7642,10.93962a29.52889,29.52889,0,0,0-3.37944-.26749c-.97956-.02365-1.97479.14041-2.951.09655-.54143-.02437-.67048-1.74333-.60411-2.27726.41068-3.30335.89-6.61677,1.01148-9.9216.11059-3.00919-.24891-6.00838-.31736-9.01826-.05612-2.46735-.08866-4.94461.05675-7.41624a3.62847,3.62847,0,0,0-2.12291-3.62782c-2.80039-1.66123-5.54893-3.40507-8.32975-5.09785-.25392-.15457-.7061-.36022-.86322-.24786-1.12188.80234-2.27132.43717-3.44262.4368-3.91783-.00126-7.8431.13869-11.761.1385-3.02111-.00015-6.03285-.19573-9.05457-.15543-.76.01015-1.708-.48239-2.40912.65364a42.85185,42.85185,0,0,1-2.71226,3.49262,4.91,4.91,0,0,0-.42957.84811c.51109.0321.87442-.03045.99253-.22961.76109-1.28332,1.89413-.93306,2.9614-.87683,1.379.07263,2.75324.21965,4.13567.22358,1.6204.00459,1.697.04775,1.36048,1.60023a2.84645,2.84645,0,0,0-.00425.82886c.18339,2.19079.37621,4.38028.56323,6.57057.17278,2.02339.30514,4.05308.52252,6.06932.242,2.24473.57033,4.47559.84239,6.71572.38,3.12918,1.0077,10.79635.9551,11.49842-.66211-.04305-1.32579-.07541-1.98517-.1372-.152-.01425-2.13478-.05993-2.98564-.00957a3.42874,3.42874,0,0,1-1.41088-.01094c-.53029-.22346-1.12515-8.49955-1.526-11.57192-.27555-2.112-.50835-4.2328-.8372-6.33376-.33086-2.11387-.66248-4.23556-1.16586-6.30366-.58892-2.41954-1.36388-4.78484-2.05813-7.17367A17.62738,17.62738,0,0,1,17.3437,66.40709Zm74.00558-16.725c.14528-1.5655.40033-3.06882.39109-4.55672-.00965-1.55583-.93746-2.85114-2.0616-2.57452-1.514.37254-10.19979-.19207-13.26749-.13969-4.219.07206-8.43605.08189-12.65586.19178-1.90205.04953-3.8128.37785-5.7125.40147-3.87245.04819-7.74-.02509-11.6097-.04711-2.22066-.01264-10.41941.71279-11.97589.52775a39.46455,39.46455,0,0,0-7.99866.145,5.65332,5.65332,0,0,0-.88737.2608c1.34347,2.54318.40292,4.89234-1.01542,7.32566,8.07624,1.05761,16.03506.31489,23.99489-.01454a2.19573,2.19573,0,0,0-.82816-.79172c-.61348-.35232-.66725-.81706-.31617-1.43922.52956-.93844,1.07-1.87612,1.52174-2.84956a4.47944,4.47944,0,0,1,5.83845-2.47912,29.11607,29.11607,0,0,1,5.46061,2.86835c2.2635,1.45107,4.37757,3.12326,6.59324,4.64821a2.21177,2.21177,0,0,0,1.24866.16424c1.86148-.08533,3.72454-.16845,5.58447-.3282,1.9952-.17137,3.98638-.494,5.98135-.63253C83.49814,50.09424,87.36275,49.90883,91.34928,49.68211Zm.73221,22.5785a2.48487,2.48487,0,0,0-.916-1.868c-2.06133-1.42593-4.25495-2.66633-6.36595-4.02531-1.3374-.861-2.63018-1.79033-3.91613-2.72474-1.60562-1.16662-3.172-2.38542-4.77634-3.5538-2.368-1.72456-4.78934-3.37991-7.12238-5.14872-1.95455-1.48184-3.79823-3.105-5.72757-4.62021-.58953-.463-1.40677-.66579-1.93642-1.17677a22.75759,22.75759,0,0,0-7.12149-4.14768,3.31253,3.31253,0,0,0-1.538-.08407c-2.0058.19191-2.50761,1.97418-3.349,3.33361a1.348,1.348,0,0,0,.52641,1.98081c2.37355,1.52244,4.71851,3.0878,7.105,4.59045,1.78534,1.12416,3.6339,2.15244,5.42522,3.26787,2.265,1.41043,4.45914,2.93234,6.75835,4.2866,3.50384,2.06375,7.07935,4.01216,10.60964,6.03385q4.09394,2.34446,8.14626,4.757C88.79946,73.70894,92.04926,73.24517,92.08149,72.26061ZM27.22531,38.04927a22.406,22.406,0,0,0-3.231-6.7723c-.31166.73624-.46959,1.09771-.6183,1.46254-.76587,1.87885-1.42747,3.80672-2.35287,5.61A2.66271,2.66271,0,0,1,19.06464,39.495c-.944.00349-.87613-1.00534-.73038-1.72969a23.572,23.572,0,0,1,1.09032-4.427c.70775-1.70321,1.32392-3.70848,3.79529-3.73071-.12509-.41646-.239-.71148-.29913-1.01966a4.44223,4.44223,0,0,0-.10683-.93471c-2.18154-4.77746-3.70038-9.9262-7.13128-14.00931a6.83978,6.83978,0,0,0-4.45817-2.81187,1.89516,1.89516,0,0,0-2.26855,1.90767,55.68319,55.68319,0,0,0,.37248,6.092,23.22406,23.22406,0,0,0,1.19152,3.77343c.351-.88674.52569-1.38913.7457-1.87286.73764-1.62189,1.41352-3.27667,2.26712-4.84073a1.26428,1.26428,0,0,1,2.27965-.14515,3.01847,3.01847,0,0,1,.344,2.15845A19.99673,19.99673,0,0,1,12.097,24.87907a1.10028,1.10028,0,0,0-.33922.81075,31.652,31.652,0,0,0,1.2606,3.69286c.7475,1.7102,1.664,3.33918,2.42835,5.042.94076,2.09588,1.753,4.25547,2.72711,6.33354a2.21314,2.21314,0,0,0,1.35715,1.09621,15.80565,15.80565,0,0,0,2.81115.16644C22.28143,38.52729,25.19482,38.93708,27.22531,38.04927ZM56.11691,36.05l.31517.05009c.23566-.36691.4662-.73711.70855-1.09976a3.49251,3.49251,0,0,1,.65243-.88466c.21762-.16512.5803-.13341.87852-.18915a2.69481,2.69481,0,0,1-.116.87372c-.27607.55383-.65477,1.05957-.959,1.602-.38929.69407-.16792,1.06081.5069,1.09452.64837-.97374,1.234-1.91676,1.89747-2.80357.15957-.21329.57719-.24006.87615-.35259a2.73051,2.73051,0,0,1-.16247.85c-.52309.93431-1.09632,1.84245-1.7072,2.8536l1.40332.43734c2.03746-3.23025,2.03746-3.23025,3.03143-3.3414l-2.03361,3.69175.20684.31292a4.23289,4.23289,0,0,0,1.127-.80131c.76729-1.0887,1.41307-2.25924,2.17183-3.35436.16139-.23294.601-.2813.9124-.41472a23.54947,23.54947,0,0,1-2.0254,3.68809c-.48119.76-.30622,1.261.58923,1.09753A2.42093,2.42093,0,0,0,65.828,38.4422a17.20049,17.20049,0,0,0,1.44612-2.90668c.71371-1.73923,1.355-3.50493,2.01824-5.23763a3.2225,3.2225,0,0,0-.50829-.25163,37.45227,37.45227,0,0,1-11.0176-4.257.9436.9436,0,0,0-.8595.00066c-.72974.79605-1.47124,1.58935-1.31621,2.81442.22347,1.76574.36627,3.54658.50775,5.32567C56.15421,34.63018,56.11365,35.343,56.11691,36.05ZM45.48157,32.25022c-.84207-.98262-1.33411-1.12389-3.087-.88529-.74872.10191-1.52186.13262-.73366,1.22408.437.60509.04455,1.301-.60654,1.64927-.16751.0896-.69921-.23244-.85726-.49575a4.504,4.504,0,0,0-5.32435-2.09973C33.28,32.03667,32.613,33.13194,31.885,34.493c-1.29578,2.42241-.86864,3.88372,1.40571,5.34563a21.795,21.795,0,0,1,2.23267,1.9085.74948.74948,0,0,0,.40614.2146c1.33309.03472,2.66794.04717,3.641.06093.51775-.5991.85728-1.21668,1.06453-1.185.43153.0659.793.47545,1.37863.87806a8.818,8.818,0,0,1-.50946-1.32081,5.28861,5.28861,0,0,1,.00616-1.0908,4.57622,4.57622,0,0,1,.83832.5895c.2656.28956.39692.70656.67286.98187.16861.16823.49971.17391.75784.25258a1.88188,1.88188,0,0,0-.06606-.711c-.48174-.87-1.04916-1.69175-1.494-2.58021-.13614-.27191.02009-.70115.04242-1.05831.35075.14823.82509.1995,1.02752.46411.47867.62571.76987,1.40038,1.2605,2.01387.178.22258.70768.158,1.07689.22448a33.57786,33.57786,0,0,0-2.29894-3.47786c-.16717-.24342-.04267-.6946-.05243-1.05015.375.05588.84137-.00436,1.10279.19573.36312.2779.53449.787.85791,1.131a13.09433,13.09433,0,0,0,1.19364,1.01192c-.637-1.30166-1.16788-2.50459-1.80228-3.64649C44.09367,32.6848,44.24229,32.20317,45.48157,32.25022ZM83.94706,57.49644q-.117,2.69508-.2339,5.39016c-.033.76551.294,1.27756,1.07629,1.3202.77349.04217,1.64987.28955,1.93132-.94368.62181-2.72465,1.29561-5.44025,1.9675-8.15572.20579-.83171.517-1.64379.70055-2.4783.1453-.66056-.03691-1.1007-.88009-1.01159-1.24317.13139-13.88381.56327-16.44354.73027-.99963.06521-1.99734.27692-2.99592.42193l-.14345.3236,5.23849,4.13018a7.20351,7.20351,0,0,1,2.81134-1.31262c2.07547-.26714,4.16387-.4563,6.24376-.52194C83.84754,55.36912,84.03771,57.50767,83.94706,57.49644ZM58.25017,24.30829a31.02962,31.02962,0,0,0,3.036,1.62872q3.37332,1.35473,6.83722,2.4998a1.60412,1.60412,0,0,0,1.15529-.57045c-.09631-1.11544-.357-2.20742-.54752-3.31092-.14214-.82339-.56878-1.74338-.32618-2.46348.83728-2.4852,1.90374-4.9048,2.89925-7.34345,1.0439-2.5572,1.033-2.514-1.32165-3.53308-.81046-.35077-1.32942-.21421-1.67414.57022-1.15946,2.63845-2.27006,5.2963-3.44163,7.92977-.194.43611-.62147,1.12735-.90469,1.1243C61.472,20.813,60.06427,22.54061,58.25017,24.30829ZM28.14609,62.68164c.47633-1.80826.48065-1.84832-1.05241-1.9337-.83913-.04674-1.70284.13107-2.54088.07942-.32039-.01976-.6001-.39713-.89835-.61153.30966-.204.61752-.56251.92931-.58241.85052-.05431,1.7033.09236,2.554.03932A3.425,3.425,0,0,0,28.24,59.14818c-.291-.25278-.56267-.711-.87616-.72409-1.69435-.07061-3.39905-.031-5.32386-.0291a11.63105,11.63105,0,0,0,.20806,1.68087c.53718,1.93307,1.24486,3.81881,1.65794,5.78213.55482,2.637.91158,5.32633,1.32406,7.99918.43144,2.79564.82294,5.5994,1.242,8.3976.25454,1.69967.50287,3.40149.81573,5.0878.05883.31711.40938.56562.62532.84577.234-.19088.45805-.39642.70423-.56921.37168-.26089.77817-.47373,1.13355-.75419.3183-.25119.58755-.56612,1.11342-1.08464a16.63163,16.63163,0,0,1-2.08492-.25607,3.78155,3.78155,0,0,1-.95651-.59139,4.28116,4.28116,0,0,1,1.04335-.70561,6.10814,6.10814,0,0,1,1.43378-.10811c-.048-1.169-.08919-1.13282-1.19984-1.155a4.16146,4.16146,0,0,1-1.38443-.56431,4.45016,4.45016,0,0,1,1.28376-.64427c1.41163-.17954,1.50718-.271,1.12154-1.65577l-2.7103.15414c.24872-1.18963,1.03307-1.15139,1.76631-1.27577.30877-.05239.795-.26871.84223-.4746a1.18723,1.18723,0,0,0-.3213-.9743c-.18054-.1715-.62236-.04112-.92545-.119-.64261-.16512-1.27041-.37868-1.90428-.57236.58821-.25,1.186-.47867,1.76087-.75848.31892-.15519.83013-.37665.86043-.601.20436-1.51344-.21176-1.87906-1.72226-1.70543-.35647.041-.71729.01319-1.25517.01893.47293-1.52841,1.91654-1.067,2.718-1.66717a9.06486,9.06486,0,0,0-.1953-.96686,9.04108,9.04108,0,0,0-.4035-.91542,15.31848,15.31848,0,0,1-1.97963.29336c-.26945.00713-.53079-.29838-.79582-.46174a5.00472,5.00472,0,0,1,.68588-.71726c.14441-.10376.39952-.04791.60472-.064,1.74136-.13653,1.87984-.3167,1.54313-2.19805a19.28772,19.28772,0,0,1-2.27737.10323,3.57469,3.57469,0,0,1-1.13615-.49737,11.89772,11.89772,0,0,1,1.19686-.58387,2.98035,2.98035,0,0,1,.73371-.02787c.68851-.0603,1.41754.02582,1.4326-1.08031.01383-1.01521-.36882-1.38913-1.3684-1.29616a4.36542,4.36542,0,0,1-1.4501-.1462,2.641,2.641,0,0,1-.7488-.50436c.32449-.19639.64907-.5415.97343-.55825A14.40354,14.40354,0,0,1,28.14609,62.68164ZM70.37236,41.24509a6.6605,6.6605,0,0,1,.915-.04661c1.94094.21706,3.25547-.3605,3.63105-2.55994a34.8981,34.8981,0,0,1,1.0514-3.80239,12.4222,12.4222,0,0,1-1.73314-.74539c-.08548-.05255.11178-.81217.2019-.8218a12.05645,12.05645,0,0,1,1.75337.03767.47251.47251,0,0,0,.18-.249,49.80819,49.80819,0,0,0,1.209-6.4925c.15245-2.4134-.76319-3.45526-2.66365-3.95828-1.79537-.4752-2.79357.28222-2.99,2.05291.62673.295,1.55654.4471,1.6398.82639.23012,1.04828-.83059.95641-1.4785,1.23306-.31725.13542-.74492.434-.80611.71227-.38738,1.76164-1.25169,3.37841-1.02576,5.33059A78.64342,78.64342,0,0,1,70.37236,41.24509Zm4.40951,26.01677a10.767,10.767,0,0,0-.23889,1.30952c-.09922,2.27385-.17179,4.54744-.26039,6.8212-.14012,3.59563-.32929,7.19292-.38666,10.78545-.00961.60221.39983,1.55562.85874,1.70946,1.76669.59225,2.76162-.23084,2.87472-2.27075a13.82572,13.82572,0,0,0-1.40632-.05992c-.62762.03284-1.38339.16207-1.35332-.68414.00809-.2274,2.03276-.64065,2.30673-.70389.2514-.058.65029-.21777.68883-.38563.24219-1.05465.40186-2.1241.60453-3.27815a13.48435,13.48435,0,0,1-1.98063-.166,5.29726,5.29726,0,0,1-1.212-.63464c.42427-.23257.84142-.4816,1.277-.68806a1.33574,1.33574,0,0,1,.48805-.01953c1.62845-.06087,1.94291-.42,1.85387-1.97534-1.01981-.03412-2.0251-.0197-3.0091-.13308-.25978-.02995-.45378-.45429-.678-.69755.26642-.189.53718-.53342.79849-.53979,1.07709-.02626,2.15131.05007,3.23327.08893.31547-1.95021.31931-1.96262-1.53349-2.44643-.54107-.14129-1.13512-.12687-1.65856-.30418-.33062-.112-.57542-.447-.85871-.682.36836-.1929.75558-.56022,1.101-.54085.63567.03565,1.23731.41375,1.87087.4325.562.01662,1.5204-.11957,1.65385-.43464.4-.94426-.56577-1.02314-1.16272-1.2702-.1799-.07446-.40487-.045-.5951-.1031-.80489-.24589-1.62188-.46856-2.39494-.78662-.22022-.09061-.30712-.47447-.45514-.72385a3.33241,3.33241,0,0,1,.82727-.33934,3.85385,3.85385,0,0,1,.9392.10394l.06446-.23534Zm-26.21276-25.628c1.24546.079,2.16416.18832,3.08828.18395,1.39667-.00661,1.82284-.4979,1.99066-1.92847.22292-1.90046.57238-3.79356.76588-5.69487a16.34031,16.34031,0,0,0-1.53764-9.42812C52.02594,30.55987,52.13064,36.36819,48.56911,41.63383ZM21.25558,43.32872c-1.79639-.09531-3.76841-.15613-5.7261-.322a1.38185,1.38185,0,0,0-1.65935,1.25532,28.697,28.697,0,0,0-.59538,4.00646c-.08624,1.77534.474,2.25964,2.23438,2.25166a7.58581,7.58581,0,0,0,1.7148-.12049,1.559,1.559,0,0,0,.93766-.65957C19.2086,47.66268,20.19089,45.55526,21.25558,43.32872Zm56.118-8.21006c-.44135,1.64638-.8622,3.09163-1.21068,4.5505-.36681,1.53554-.3366,1.53787,1.23933,1.45287,2.97164-.16026,5.9447-.36839,8.9141-.44348.94013-.02378,1.43274-.192,1.64069-1.20256.23614-1.14753-.65074-1.10877-1.222-1.19392A23.8725,23.8725,0,0,1,77.37353,35.11866ZM48.18036,37.17677c1.25769.05553,1.22777-.90608,1.38175-1.49153A38.44808,38.44808,0,0,0,50.693,30.40739c.26286-2.26115.59438-4.57109-.15266-6.75885a1.32957,1.32957,0,0,0-.92942-.77633c-.25654-.02876-.75069.43592-.88343.77033-.66925,1.686-1.18492,3.4281-1.89465,5.09712-.455,1.06991.80024,2.9921.91554,3.23979A6.58812,6.58812,0,0,1,48.18036,37.17677ZM77.731,33.12708c2.854,3.0133,6.997,3.00063,10.75207,3.94456.505-1.87379.08121-2.44668-1.50238-3.13473-2.17968-.947-4.27418-2.079-6.36554-3.20093-.57047-.306-.87751-.395-1.27438.26007C78.9447,31.64976,78.41879,32.22938,77.731,33.12708Zm-13.80976,8.1163-.01228-.26131-8.19354-2.5114c-.2634.67763-.51924,1.24289-.70283,1.82735-.3943,1.25529-.17206,1.57354,1.10421,1.515,2.28528-.10477,4.57088-.24439,6.85621-.384A7.10566,7.10566,0,0,0,63.92123,41.24338ZM78.357,58.56146c1.20944-.06878,2.27914-.11773,3.34825-.19519.57159-.04142,1.194-.23641.97619-.92925a1.31273,1.31273,0,0,0-1.10715-.66468c-2.09027.19635-4.17558.51117-6.26258.78549C77.709,59.002,79.75079,60.88316,82.543,61.8954l-.12665-2.50659c-.91278.05192-1.688.12388-2.46049.13208C79.188,59.529,78.35859,59.56038,78.357,58.56146ZM46.92727,23.35852l-.48349-.24016a10.34677,10.34677,0,0,0-1.57563,1.95918c-.57645,1.23332-1.6854,1.7876-2.65835,2.531-.32762.25034-.91865.35426-1.02723.644a2.02049,2.02049,0,0,0-.01073,1.53709c.2579.43038,3.36807-.12734,3.69533-.65778A16.2922,16.2922,0,0,0,46.92727,23.35852ZM24.3539,46.07043c-.256-.9569-.53249-1.71392-1.50214-.97742a10.3438,10.3438,0,0,0-3.7999,5.96392c-.17286.70424-.24594,1.428-.36475,2.14278a7.79058,7.79058,0,0,1,1.46681.35681c.25911.28035.555.52645.83624.78624a3.39107,3.39107,0,0,0,.19177-1.25616c-.24122-.9234-.6485-1.79417-.93867-2.70445-.13741-.43109,1.452-2.597,1.86843-2.517.23029.04422.44071.44541.53206.73229.2049.64353.32982,1.31622.48729,1.977l.456-.06273a4.09566,4.09566,0,0,0,.0417-.98826c-.14216-.7072-.35652-1.39636-.54221-2.09265C22.83536,46.48887,23.02705,45.87992,24.3539,46.07043ZM77.28441,19.22527c-.48363-.45575-.84568-1.08172-1.15914-1.04261-1.29315.16132-.93879-.532-.78452-1.25437.19339-.90567.30263-1.825.44819-2.73844-1.892,1.68127-2.27561,4.7599-.91083,6.36442a1.86593,1.86593,0,0,0,1.75521.236A47.97019,47.97019,0,0,0,79.47,16.78334l-.2504-.16146Zm1.73837,8.47435.31626.27779c.554-2.20291,1.3079-4.12246,4.01387-3.09694.22987-1.63637-.9855-2.24494-1.61873-3.164-.10252-.14882-.84553-.10291-.97661.076a9.677,9.677,0,0,0-1.68632,2.76774A11.40429,11.40429,0,0,0,79.02278,27.69962Zm6.5566-11.44313-.34442-.36528c-.63159,2.121-2.19055,1.75-3.56745,1.7144-.13318-.00345-.20152-.83689-.29995-1.28506l-.32888-.06215c-.22259,1.10611-.46164,2.21037-.64248,3.32112-.0182.11177.29524.34248.48973.38322,2.12357.445,2.13028.441,3.43111-1.37432a14.58223,14.58223,0,0,0,.87313-1.37211A7.85139,7.85139,0,0,0,85.57938,16.25649ZM30.71994,26.86806c2.67216,1.90541,5.60985,2.06066,7.32034.135C35.78116,25.957,34.12039,25.91611,30.71994,26.86806ZM70.2718,23.42424c3.04631-3.26452,3.0739-3.35125,2.25813-7.0995C70.08914,20.62861,69.56032,22.29122,70.2718,23.42424ZM68.71106,36.583l-.274-.05769-2.57234,4.6753c1.12485.06976,2.0453.12685,2.8685.17789ZM33.38481,41.70534a7.19542,7.19542,0,0,0-4.61672-1.77268c-1.69763.06582-3.37843-.33924-4.80694,1.34852a6.56616,6.56616,0,0,0,.64391.48654,1.61379,1.61379,0,0,0,.44566.10866c.5373-1.487.95784-1.81221,2.72183-1.59389.77389.09575,1.966.00281,1.82273,1.29788C30.87484,41.62256,32.098,41.66289,33.38481,41.70534Zm33.556,46.47314-.00577-1.25058c-1.66355-.10741-3.19134-.20606-4.73233-.30558-.22106.927.15474,1.767.95684,1.75661C64.41435,88.36266,65.6729,88.25059,66.94085,88.17848ZM27.45078,34.44606l1.61788,3.73245,1.63718-5.34177C29.58559,33.39061,28.56536,33.895,27.45078,34.44606Zm54.96632-7.895A34.01126,34.01126,0,0,0,90.335,30.234,18.69614,18.69614,0,0,0,82.4171,26.55105ZM13.3189,63.677a4.23831,4.23831,0,0,0,2.63651-1.64945,7.74816,7.74816,0,0,0,.46156-2.77958Q14.868,61.46244,13.3189,63.677ZM7.5522,79.023l.64926.27305c.21957-.47861.45978-.94994.65366-1.43758.2643-.66474.32255-1.50371.77516-1.97789.788-.8256.33512-1.24094-.49515-1.84308Zm12.3083-41.5549c.99087-1.98971,2.67093-3.74257,2.56184-6.139C21.12966,33.20767,19.96151,35.13162,19.8605,37.46814ZM17.34676,52.0896l-2.04367-.24513.9353,3.72477.40411-.01237ZM34.70994,30.23318c1.20376.02462,2.28717.067,3.37287.05751A5.7236,5.7236,0,0,0,39.1633,30.074l-.22668-1.16646Zm13.79344,7.82407-2.7003,3.47048C46.69736,41.52508,48.405,39.40128,48.50338,38.05725ZM78.913,19.60118c-.50616.957-1.44448,1.62025-.79307,2.717C78.47426,21.485,79.72821,20.94125,78.913,19.60118Zm-63.85661-1.6157-.51689-.2411-1.12639,2.46789.37874.17521Z"></path><path d="M36.80142,57.18769c1.58262-.09,3.16536-.17046,4.74781-.27341,1.03606-.06742,1.43134.34167,1.38379,1.42452-.20652,4.70223-.40643,9.40625-.47711,14.10472a36.40294,36.40294,0,0,0,.38386,7.53217c.43336,2.1899,1.68112,9.40741,1.11733,9.60635-.42239.14906-4.59647.33149-6.23592.4262-1.652.09545-2.41018-.43841-2.38916-2.1175.01016-.81139.17927-1.63157.15947-2.4388-.046-1.876-.173-3.74566-.24843-5.6196-.07008-1.73929-.113-3.48109-.17319-5.22131-.1063-3.072-.20586-6.14459-.32934-9.215-.076-1.88909-.19116-3.7746-.28829-5.66176-.00209-.04069.00164-.082.002-.123.00687-.73264-.2721-1.80764.08984-2.11474.49744-.42208,1.48009-.26279,2.25485-.35259Zm-1.1753,1.69644c.0047,1.0176-.04061,1.95552.02245,2.88046.20387,2.9901.50774,5.9693.658,8.96444.1352,2.69429.09828,5.40578.18,8.10615.02926.96653.20891,1.91972.2752,2.88437q.17376,2.52867.28594,5.06458c.03786.88916.38238,1.52282,1.32154,1.51549.89236-.007,1.79162-.18511,2.68853-.27315.85711-.08419.95763-.62841.87819-1.30881-.07671-.657-.34408-.96373-1.10282-.90787a22.53761,22.53761,0,0,1-2.70359-.10146l-.09524-.50182a4.99458,4.99458,0,0,1,1.12435-.58509,8.0416,8.0416,0,0,1,1.59716-.11124c.72417-.01994.83505-.45041.88967-1.06478.06166-.69364-.23093-.79027-.83065-.83286a14.2863,14.2863,0,0,1-2.072-.43852l.06268-.60137a10.59934,10.59934,0,0,1,1.62762-.25327c1.0156-.00459,1.35069-.33891,1.17168-1.35311a9.36079,9.36079,0,0,0-.31459-1.05087c-.8807.05008-1.69969.13467-2.51181.12054-.2554-.00445-.49234-.27384-.73774-.422.21635-.21373.40268-.53879.65509-.61882a11.5065,11.5065,0,0,1,1.80627-.36218.93056.93056,0,0,0,.86366-1.233c-.05946-.23556-.63275-.422-.99174-.44024-.72687-.03682-1.47468.11674-2.19776.06352-.255-.01875-.463-.412-.6924-.63432.23035-.19321.44432-.50921.69428-.55524A7.25329,7.25329,0,0,1,40.02,74.71431c1.22643.09334,1.31173-.688,1.35906-1.56741.05395-1.00257-.678-.77251-1.26278-.80227a16.44333,16.44333,0,0,1-1.93658-.15226c-.28109-.04823-.51412-.31277-.769-.47915.3156-.197.6275-.53706.94755-.562.72367-.05642,1.45209.09813,2.17705.0507.28124-.01841.77963-.34046.7991-.54119a26.15222,26.15222,0,0,0,.026-2.64289c-1.22878-.01783-2.32994.03085-3.405-.0847-.37295-.0401-.68113-.48731-1.01889-.74857a4.81125,4.81125,0,0,1,1.16955-.39183,20.93541,20.93541,0,0,1,2.31061.02894c.83982.037,1.1066-.38927,1.02144-1.15035-.03524-.315-.04657-.634-.08152-1.13306-.97456-.00835-1.94854.0329-2.90612-.047a4.86688,4.86688,0,0,1-1.27484-.47713,4.31925,4.31925,0,0,1,1.29962-.59466c.95526-.07846,1.91533.00323,2.98023.02128l-.01346-2.91637c-1.25312-.00175-2.50891.03033-3.7559-.02713a2.96883,2.96883,0,0,1-.99886-.45687,3.463,3.463,0,0,1,1.03405-.65851A9.36809,9.36809,0,0,1,39.297,59.412c.72216-.01493,1.44577-.07567,2.16877-.11679l.008-.44352A10.89292,10.89292,0,0,0,35.62612,58.88413Z"></path><path d="M46.9412,82.18688c.15331-3.13026.53523-6.26187.66646-9.39129.10488-2.50123-.03652-4.99917-.0352-7.50028.001-1.83383.06527-3.67087.082-5.50565.00588-.64378-.09291-1.28533-.05587-1.92743.02862-.496,1.11417-1.251,1.5324-1.18589a23.4733,23.4733,0,0,0,2.61822.33166c.93359.03916,1.88234-.08929,2.81839-.06589.31462.00788.86155.22547.87447.40085a34.89845,34.89845,0,0,1,.0521,3.49407c-.03441,1.2813-.13714,2.56422-.19847,3.84638-.03426.71629-.02083,1.43289-.07015,2.14865-.30924,4.48868.18906,21.90057-.72561,22.62406-.8248.6524-5.10324.11117-6.4286.25217C47.0842,89.81333,46.83685,84.31727,46.9412,82.18688Zm3.09346-19.60335.05316-.52935,3.95412.07422c.251-1.70606.17508-1.72495-1.40333-1.82851-1.13416-.07444-2.24578-.34056-3.36745-.52118l.04951-.47c1.56753-1.10778,3.21267.63464,4.80726-.05916-.25967-1.00631-2.00987-1.2807-5.31639-.80129.0134,2.90442.08795,5.83742.02452,8.77467-.0737,3.41346-.33325,6.83291-.39194,10.24555-.05664,3.29307.02429,6.58193.09548,9.86888.00641.29574.36034.79466.59414.80705,1.35686.072,2.72608.02645,4.09112.02068a1.71974,1.71974,0,0,0-1.06848-.96995c-.61861-.15-1.31233-.0409-1.93251-.18756-.35107-.08305-.61934-.45586-.92491-.69816l.23082-.33043c.69083-.03929,1.38534-.12505,2.07159-.10654.93.02511,1.45212-.22646,1.49072-1.30561.03787-1.05889-.29253-1.53171-1.38558-1.3446a1.06827,1.06827,0,0,1-.60457-.03188c-.4836-.23669-.93912-.52648-1.40564-.79547a7.21831,7.21831,0,0,1,1.559-.43747c1.90125-.0952,2.1437-.40873,1.60137-2.514-.80475.12242-1.64133.29964-2.47927.35251a2.73455,2.73455,0,0,1-1.00576-.36157c.23338-.25895.425-.634.71013-.74915a4.38739,4.38739,0,0,1,1.33214-.19229c1.82385-.1252,2.06815-.45026,1.63127-2.06366-1.29427-.505-2.87294.16723-3.92747-1.09252a1.849,1.849,0,0,1,1.06908-.28424c2.6037.276,2.87733.07652,3.34589-2.52072a3.96063,3.96063,0,0,0,.20081-.71272c-.0495-1.54606.42116-1.91375-1.5527-1.91759a5.19869,5.19869,0,0,1-1.451-.1545c-.27518-.0818-.46731-.40451-.69676-.619.30475-.19354.61112-.53585.91391-.54839a8.15154,8.15154,0,0,1,1.67568.23731c.92975.15866,1.34345-.14858,1.34592-1.17877.00218-.913-.30908-1.20663-1.20321-1.17877-1.05367.03289-2.10424-.08114-3.15615-.13147l.0342-.47431c1.3375-.75431,2.78278-.28161,4.1544-.35086.44673-1.92835.44858-1.93466-1.24031-2.3482C51.7208,62.94962,50.87586,62.773,50.03466,62.58353Z"></path><path d="M57.44715,50.25476a1.80145,1.80145,0,0,1-1.58706,2.00553c-1.05176.1043-2.372-1.30773-2.40061-2.56756a1.75906,1.75906,0,0,1,1.50221-1.90388C56.64017,47.64329,57.39642,48.39359,57.44715,50.25476Z"></path><path d="M16.96835,23.92942c.102-.22613.31294-.41416.388-.6437.2222-.67907.33819-1.471,1.35607-1.16332a1.93149,1.93149,0,0,1,1.28669,2.29169c-.52475,1.38965-1.146,2.75042-1.78556,4.09785a17.63153,17.63153,0,0,1-1.46128,2.59524,1.69511,1.69511,0,0,1-1.213.68544c-.27617-.01905-.52243-.64859-.69391-1.04732a3.65594,3.65594,0,0,1-.13819-.95844A54.95827,54.95827,0,0,1,16.96835,23.92942Z"></path><path d="M62.85418,64.3347c.29826-.18691.60823-.53809.89279-.53268a4.91856,4.91856,0,0,1,3.774,1.30164c-.43464.15375-.70837.35282-.91761.30791-1.28167-.275-2.70337-.15715-3.7585-1.099Z"></path><path d="M74.83974,29.67288a1.64337,1.64337,0,0,1-2.35109,1.0007c-.19348-.07537-.43749-.38936-.40175-.549a.81962.81962,0,0,1,.54546-.51538C73.30346,29.56975,73.97526,29.63791,74.83974,29.67288Z"></path><path d="M72.1307,40.04182,71.209,38.89756c.3651-.23617.74479-.66356,1.09124-.65524.35279.00849.67284.44578,1.00721.69533Z"></path><path d="M73.58414,33.97762c-.69666.27721-1.057.55684-1.27348.47948a8.313,8.313,0,0,1-1.42152-.81859c.32406-.261.729-.7875.95581-.72943A7.43944,7.43944,0,0,1,73.58414,33.97762Z"></path><path d="M75.91276,25.15858,77.00263,26.23c-.37118.26094-.76541.73966-1.107.72132-.33907-.01818-.62519-.53674-.93452-.83583Z"></path><path d="M53.13761,73.13354c-1.113-.05651-2.22761-.10016-3.3361-.19016-.10633-.00865-.25077-.3078-.2384-.46867a.71732.71732,0,0,1,.317-.46264,5.6121,5.6121,0,0,1,3.32048.6599Z"></path></svg></g></svg>